<svg width="41" height="40" viewBox="0 0 41 40" fill="none" xmlns="http://www.w3.org/2000/svg">
<path d="M14.1778 4.57042C15.5976 4.07892 17.1625 4.75266 17.6724 6.0746C18.0626 7.08671 17.7208 8.18449 16.9032 8.86461L17.3508 10.0683L18.0588 10.88C18.2204 11.0657 18.4648 11.1551 18.7094 11.1259C19.3687 11.0472 20.0242 11.0462 20.6664 11.1154C20.884 11.139 21.1002 11.0682 21.2558 10.9177L21.7627 10.4294L22.1338 9.34416C21.8131 8.90739 21.7029 8.32992 21.8901 7.78215C22.2078 6.85358 23.2548 6.37641 24.1889 6.75999C24.9935 7.09002 25.434 7.98062 25.2018 8.80737C25.0543 9.33396 24.6775 9.72755 24.2127 9.92146L23.8018 11.1242L23.899 11.7878C23.9324 12.0159 24.0692 12.2156 24.2685 12.3356C24.9385 12.7414 25.5543 13.2367 26.0954 13.8088C26.2772 14.0014 26.5478 14.0845 26.8073 14.0333L28.1433 13.7704L29.6505 12.9417C29.6556 12.2027 30.05 11.4896 30.7473 11.1062C31.8016 10.5268 33.1409 10.9226 33.7078 11.992C34.2195 12.9568 33.9049 14.1665 32.9866 14.7566C32.2696 15.2165 31.3925 15.1969 30.7141 14.8001L29.1979 15.6332L28.3528 16.5271C28.1259 16.767 28.0461 17.1069 28.1341 17.4257C28.1347 17.4276 28.135 17.4288 28.1355 17.4307C28.2862 17.9801 28.3785 18.5319 28.4178 19.0789C28.4406 19.4046 28.627 19.6983 28.9178 19.8549L30.0273 20.4522L32.2235 20.8709C32.6092 20.5369 33.1415 20.3764 33.6865 20.4798C34.6637 20.6663 35.2958 21.6298 35.0492 22.597C34.8371 23.4252 34.0183 23.9744 33.1595 23.8631C32.5739 23.7872 32.1 23.4357 31.8445 22.9644L29.634 22.5434L28.2721 22.704C28.021 22.7342 27.8024 22.8898 27.7007 23.1184C27.2964 24.0206 26.737 24.8497 26.0451 25.5648C25.8732 25.7425 25.8094 25.9974 25.8729 26.2365L26.2163 27.5382L27.057 28.8413C27.9761 28.7073 28.9344 29.1047 29.4683 29.9324C30.186 31.0444 29.8677 32.5129 28.7596 33.2254C27.6522 33.9378 26.1406 33.6216 25.409 32.5234C24.8967 31.7546 24.8877 30.8081 25.2978 30.0585L24.4053 28.6754L23.3108 27.7813C23.1487 27.6482 22.9285 27.6124 22.7316 27.6816C22.513 27.7584 22.2901 27.827 22.0621 27.8868C20.8233 28.2117 19.5732 28.2501 18.3833 28.0454C18.2088 28.0157 18.0308 28.0645 17.8978 28.1787L17.3141 28.6818L16.8826 29.7445C17.1788 30.1985 17.2563 30.7805 17.0388 31.3167C16.6691 32.2266 15.5966 32.6452 14.6853 32.2112C13.9006 31.8376 13.5103 30.9244 13.7885 30.1119C13.9656 29.5943 14.3632 29.2222 14.8386 29.0544L15.3167 27.8765L15.2233 26.8404C14.3513 26.2972 13.5745 25.6011 12.9385 24.7793L11.451 24.9204L10.0608 25.5993C10.0733 26.5261 9.5958 27.4064 8.75354 27.8306C7.56339 28.4294 6.09679 27.8914 5.47816 26.6283C4.8597 25.3658 5.32231 23.8568 6.51246 23.2579C7.40309 22.8097 8.44794 22.998 9.17684 23.6507L10.4879 23.0101L11.3958 22.0431C11.4552 21.9798 11.4769 21.8906 11.454 21.8071L11.4536 21.8059C11.0267 20.2489 11.0639 18.6765 11.4812 17.2325C11.5036 17.1533 11.4862 17.0676 11.4322 17.0044L10.6424 16.0702L8.94491 15.1829C8.479 15.3851 7.92577 15.3829 7.4383 15.1278C6.55768 14.6669 6.23692 13.5666 6.7577 12.7153C7.21491 11.9688 8.19354 11.688 8.99046 12.0739C9.50631 12.3235 9.8402 12.7885 9.94028 13.3019L11.6378 14.1892L12.8441 14.3056C12.9279 14.3139 13.0093 14.2791 13.0623 14.2147C13.6067 13.5463 14.2557 12.9569 14.9935 12.474C15.196 12.3408 15.3213 12.1195 15.3236 11.8779L15.3321 10.7922L14.8547 9.50955C13.8297 9.43314 12.9005 8.81477 12.5296 7.85344C12.0197 6.5315 12.7577 5.0613 14.1778 4.57042Z" fill="#EC5863"/>
<path d="M25.9707 17.9975C25.0434 14.616 21.5263 12.6 18.1152 13.4947C14.704 14.3893 12.6905 17.8558 13.6178 21.2373C14.5451 24.6188 18.0622 26.6348 21.4734 25.7402C24.8845 24.8455 26.8981 21.379 25.9707 17.9975Z" fill="#F58A97"/>
<path d="M20.9516 23.8665C17.8542 24.6813 14.6738 23.106 13.4172 20.2878C13.4532 20.6043 13.5139 20.9222 13.6006 21.2394C14.5239 24.6198 18.0431 26.6312 21.4611 25.7321C24.8791 24.833 26.9014 21.3638 25.978 17.9834C25.8914 17.6662 25.7819 17.3612 25.6518 17.0694C26 20.1265 24.0488 23.0517 20.9516 23.8665Z" fill="#F07281"/>
<path d="M11.3194 32.8705C11.0558 31.9079 10.0542 31.3344 9.08235 31.5895C8.11051 31.8447 7.5364 32.8318 7.80004 33.7944C8.06369 34.757 9.06525 35.3306 10.0371 35.0754C11.0089 34.8203 11.583 33.8332 11.3194 32.8705Z" fill="#EB5569"/>
<path d="M34.1075 27.3608C33.9334 26.725 33.2718 26.3462 32.6299 26.5147C31.988 26.6832 31.6088 27.3352 31.7829 27.971C31.9571 28.6068 32.6186 28.9856 33.2605 28.8171C33.9024 28.6486 34.2817 27.9966 34.1075 27.3608Z" fill="#EB5569"/>
<path d="M30.8384 5.62209C30.5819 4.68558 29.6075 4.1276 28.662 4.37581C27.7165 4.62401 27.1579 5.58441 27.4144 6.52092C27.6709 7.45742 28.6453 8.0154 29.5908 7.7672C30.5363 7.51899 31.0949 6.5586 30.8384 5.62209Z" fill="#EB5569"/>
<path d="M20.1913 21.5241C19.9522 20.651 19.0437 20.1308 18.1622 20.3622C17.2807 20.5936 16.76 21.489 16.9991 22.3621C17.2383 23.2352 18.1467 23.7554 19.0282 23.524C19.9097 23.2926 20.4304 22.3972 20.1913 21.5241Z" fill="#EB5569"/>
<path d="M24.3079 19.0791C24.1452 18.4848 23.5268 18.1307 22.9268 18.2882C22.3269 18.4457 21.9724 19.0552 22.1352 19.6494C22.298 20.2437 22.9163 20.5978 23.5163 20.4403C24.1163 20.2828 24.4707 19.6734 24.3079 19.0791Z" fill="#EB5569"/>
<path d="M19.9554 16.6152C19.8187 16.1161 19.2995 15.8188 18.7957 15.9511C18.2919 16.0833 17.9942 16.5951 18.1309 17.0941C18.2676 17.5932 18.7868 17.8905 19.2906 17.7582C19.7945 17.626 20.0921 17.1142 19.9554 16.6152Z" fill="#EB5569"/>
</svg>
